Simulation
nRows=28
nColumns=15
endheader
time  TH_x TH_y TH_z SC_y  SC_z  SC_x  AC_y  AC_z  AC_x  GH_y  GH_z  GH_yy  EL_x  PS_y
1.55  0.000000  0.000000  0.000000  -32.31911749985774  6.238190178715044  26.76559691285001  48.260344052247895  4.912991545610299  -3.9992567986322682  23.807318704413632  55.8564076095149  -13.950657188383534  17.9332426194146  0.000000
1.581  0.000000  0.000000  0.000000  -32.65691063278125  6.475221371244061  27.460369045343047  48.170773083483006  4.9175025668389605  -3.885690263305746  23.813108514250484  56.46039549772355  -14.047296864397937  17.9082197069662  0.000000
1.612  0.000000  0.000000  0.000000  -32.94226141272241  6.669515785855832  28.051633024730062  48.088966291060046  4.913146646349204  -3.7766927809571524  23.789039139118884  56.99482835464961  -14.075079732592593  17.892606423988003  0.000000
1.643  0.000000  0.000000  0.000000  -33.207644712326896  6.819157417639494  28.563836968660617  48.046707625935205  4.915753430971645  -3.6782772352917643  23.746993213156973  57.46093994520718  -14.098580035634779  17.893235929314194  0.000000
1.674  0.000000  0.000000  0.000000  -33.416866548689974  6.915109379015286  28.970101033495162  48.024032587562345  4.912493921877588  -3.5983104165919615  23.68010776390199  57.83319815265757  -14.10732891971618  17.912796200140107  0.000000
1.705  0.000000  0.000000  0.000000  -33.627190450086374  6.988616420494236  29.32149558556464  48.02290137917186  4.9174538527569425  -3.5362535560893154  23.653253073964972  58.07687747183593  -14.120657581308437  17.939585685634132  0.000000
1.736  0.000000  0.000000  0.000000  -33.80585118666365  7.034630680441947  29.593554867323277  48.02195712167444  4.91616462364135  -3.490096268561744  23.665335184183046  58.156601909155576  -14.134028876220462  17.97205955397424  0.000000
1.767  0.000000  0.000000  0.000000  -33.967359751629985  7.068588891315051  29.793806442947698  48.03784331543098  4.900070982793418  -3.4770603212119093  23.71472513547445  58.11957694364424  -14.14615102727004  18.005261728571  0.000000
1.798  0.000000  0.000000  0.000000  -34.07772793448447  7.081213387263356  29.898440232501517  48.04727182351696  4.869018780447997  -3.4912390253091354  23.80942179977477  57.917772144766595  -14.156027223039608  18.031495582096635  0.000000
1.829  0.000000  0.000000  0.000000  -34.13611358634919  7.082007875676988  29.89685426711743  48.07508521670067  4.806091162997848  -3.545760175889884  23.913035844756184  57.62941303900373  -14.172631708223218  18.055922486062627  0.000000
1.8599999999999999  0.000000  0.000000  0.000000  -34.1073164090783  7.055001727660884  29.76000294234919  48.09900558139679  4.724217443774801  -3.634521066903717  24.03205769055187  57.21550984521484  -14.198142638187  18.068708757755203  0.000000
1.891  0.000000  0.000000  0.000000  -34.023753470324124  6.99485903945565  29.52037673772681  48.15552460828899  4.628554455197471  -3.7483064356204037  24.151792684774936  56.69752068328669  -14.283924732510206  18.076728114989393  0.000000
1.922  0.000000  0.000000  0.000000  -33.85629187904723  6.887053119844649  29.153803155605765  48.223725908960766  4.529495511505841  -3.8844153756113995  24.27484171592972  56.04713657349405  -14.440884230331829  18.07747381704482  0.000000
1.953  0.000000  0.000000  0.000000  -33.650218464392395  6.728002914432032  28.70684355536273  48.33425826376509  4.429027421541821  -4.036300305957341  24.39211636740799  55.28690617264712  -14.668936231307612  18.073528394657203  0.000000
1.984  0.000000  0.000000  0.000000  -33.38448730140256  6.512928591047666  28.15969924636971  48.4595554065648  4.329965583970767  -4.201970620684927  24.504875218129534  54.391233006412214  -14.974061273445217  18.079043231343555  0.000000
2.015  0.000000  0.000000  0.000000  -33.099488487690664  6.26013860598209  27.534308292044365  48.60537734984889  4.223644932491643  -4.377858237863191  24.605592518338195  53.4156363152461  -15.266808228504907  18.09750654499346  0.000000
2.046  0.000000  0.000000  0.000000  -32.777428109018516  5.971178010253655  26.810732697028524  48.742771613310815  4.111254876816066  -4.553338124032156  24.697393166594278  52.33623204681411  -15.540912175636418  18.14572782574694  0.000000
2.077  0.000000  0.000000  0.000000  -32.45257761824858  5.659139751931971  26.02137705319881  48.87772116880251  3.9850846175117174  -4.731945070419867  24.782664183521405  51.20279134206805  -15.757277224949155  18.222496865043293  0.000000
2.108  0.000000  0.000000  0.000000  -32.10232119834149  5.321021330589575  25.151990344260387  48.98435627993353  3.8495959681675944  -4.902640589074348  24.8626664722899  49.99474268489612  -15.90999474874935  18.323169382686007  0.000000
2.139  0.000000  0.000000  0.000000  -31.7650821307869  4.960256131143312  24.23889760505156  49.08236942494081  3.706908209419545  -5.066563547832546  24.94265235912175  48.751783881273006  -16.022885894258383  18.440763903622802  0.000000
2.17  0.000000  0.000000  0.000000  -31.422381449394106  4.573778606991993  23.273870099502076  49.15106332800302  3.560730176870665  -5.2159816803728765  25.022374369802687  47.45674631389597  -16.092654011441674  18.566637495284834  0.000000
2.201  0.000000  0.000000  0.000000  -31.108440686833543  4.166689666720224  22.28989409716767  49.21229531999815  3.4114528757722966  -5.354683622287351  25.094505450932733  46.14773926015153  -16.13046822362871  18.695593529906148  0.000000
2.232  0.000000  0.000000  0.000000  -30.79790028524585  3.7355647666082645  21.27568537463937  49.24173312860072  3.262127140325674  -5.477844739815795  25.156740480765176  44.80918233191064  -16.133908902818554  18.81917732931173  0.000000
2.263  0.000000  0.000000  0.000000  -30.51730641143885  3.289376443286706  20.258354392557685  49.26026772427353  3.1141672293343436  -5.589640032926384  25.198633237440628  43.47160928802354  -16.0981760203071  18.93401092597092  0.000000
2.294  0.000000  0.000000  0.000000  -30.238963486346652  2.8280173183622357  19.225730477255674  49.24228042330707  2.9693363742906174  -5.683732558048386  25.21843136291904  42.117678508017484  -16.017273689349206  19.036856577467095  0.000000
2.325  0.000000  0.000000  0.000000  -29.991511835844307  2.3607847841638323  18.206596666122717  49.21261827022734  2.8342516616570657  -5.764572144241617  25.213779674327114  40.764428877006004  -15.882015108711629  19.125836991324274  0.000000
2.356  0.000000  0.000000  0.000000  -29.747380461462534  1.8909976360865017  17.19107058000102  49.14692760427438  2.708768738705928  -5.826173361387952  25.183941145747532  39.391564903096366  -15.683609975956925  19.20165799596531  0.000000
2.387  0.000000  0.000000  0.000000  -29.534643600783163  1.4289785580971892  16.203171846580084  49.07105023653598  2.5973818984036803  -5.8731612467752985  25.13139897574409  38.010396520590355  -15.42268577719442  19.265658973138855  0.000000
